<mxfile host="Electron" modified="2024-11-29T07:45:09.346Z" agent="Mozilla/5.0 (Macintosh; Intel Mac OS X 10_15_7) AppleWebKit/537.36 (KHTML, like Gecko) draw.io/21.4.0 Chrome/112.0.5615.204 Electron/24.5.1 Safari/537.36" etag="Sg-uYYjhen3iDqS588aR" version="21.4.0" type="device">
  <diagram name="Page-1" id="Z8rSTs07eiCEPh10b3Tz">
    <mxGraphModel dx="857" dy="571" grid="1" gridSize="10" guides="1" tooltips="1" connect="1" arrows="1" fold="1" page="1" pageScale="1" pageWidth="827" pageHeight="1169" math="0" shadow="0">
      <root>
        <mxCell id="0" />
        <mxCell id="1" parent="0" />
        <mxCell id="Y7op9sz4Rln9txYC8rNm-1" value="" style="rounded=0;whiteSpace=wrap;html=1;" vertex="1" parent="1">
          <mxGeometry x="550" y="220" width="220" height="200" as="geometry" />
        </mxCell>
        <mxCell id="Y7op9sz4Rln9txYC8rNm-2" value="browser" style="text;html=1;strokeColor=none;fillColor=none;align=center;verticalAlign=middle;whiteSpace=wrap;rounded=0;fontStyle=1;fontSize=16;" vertex="1" parent="1">
          <mxGeometry x="615" y="420" width="90" height="30" as="geometry" />
        </mxCell>
        <mxCell id="Y7op9sz4Rln9txYC8rNm-3" value="" style="rounded=0;whiteSpace=wrap;html=1;" vertex="1" parent="1">
          <mxGeometry x="565" y="230" width="190" height="30" as="geometry" />
        </mxCell>
        <mxCell id="Y7op9sz4Rln9txYC8rNm-4" value="" style="rounded=0;whiteSpace=wrap;html=1;" vertex="1" parent="1">
          <mxGeometry x="565" y="270" width="190" height="30" as="geometry" />
        </mxCell>
        <mxCell id="Y7op9sz4Rln9txYC8rNm-5" value="" style="rounded=1;whiteSpace=wrap;html=1;" vertex="1" parent="1">
          <mxGeometry x="625" y="310" width="70" height="30" as="geometry" />
        </mxCell>
        <mxCell id="Y7op9sz4Rln9txYC8rNm-7" style="edgeStyle=orthogonalEdgeStyle;rounded=0;orthogonalLoop=1;jettySize=auto;html=1;entryX=0;entryY=0.5;entryDx=0;entryDy=0;" edge="1" parent="1" source="Y7op9sz4Rln9txYC8rNm-6" target="Y7op9sz4Rln9txYC8rNm-1">
          <mxGeometry relative="1" as="geometry" />
        </mxCell>
        <mxCell id="Y7op9sz4Rln9txYC8rNm-6" value="Web Driver" style="rounded=0;whiteSpace=wrap;html=1;fontStyle=1;fontSize=16;" vertex="1" parent="1">
          <mxGeometry x="400" y="300" width="113.5" height="40" as="geometry" />
        </mxCell>
        <mxCell id="Y7op9sz4Rln9txYC8rNm-9" style="edgeStyle=orthogonalEdgeStyle;rounded=0;orthogonalLoop=1;jettySize=auto;html=1;" edge="1" parent="1" source="Y7op9sz4Rln9txYC8rNm-8" target="Y7op9sz4Rln9txYC8rNm-6">
          <mxGeometry relative="1" as="geometry" />
        </mxCell>
        <mxCell id="Y7op9sz4Rln9txYC8rNm-8" value="Selenium" style="rounded=0;whiteSpace=wrap;html=1;fontStyle=1;fontSize=16;" vertex="1" parent="1">
          <mxGeometry x="270" y="300" width="100" height="40" as="geometry" />
        </mxCell>
      </root>
    </mxGraphModel>
  </diagram>
</mxfile>
